# xmcd CD database generated by RipIT
#
# Track frame offsets:
# 150
# 39002
# 76494
# 108231
# 136033
# 172429
# 203599
# 239032
#
# Disc length: 3808 seconds
#
# Revision: 0
# Processed by: cddbd v1.5.2PL0 Copyright (c) Steve Scherf et al.
# Submitted via: RipIT 3.9.0 www.suwald.com/ripit/ripit.html on 2016-03-29 at 21:00
#
DISCID=640ede08
DTITLE=??? Kids - 50 - Schatz der Piraten
DYEAR=2016
DGENRE=Hörspiel
TTITLE0=Filmstars
TTITLE1=Recherche
TTITLE2=Piratengold
TTITLE3=Kopflose Madonna
TTITLE4=Auf hoher See
TTITLE5=Schatzinsel
TTITLE6=Indianer
TTITLE7=Durchgespülte
EXTD=
EXTT0=
EXTT1=
EXTT2=
EXTT3=
EXTT4=
EXTT5=
EXTT6=
EXTT7=
PLAYORDER=
